HIERARCHY
ROOT Hips
{
	OFFSET 0.000000 0.000000 0.000000
	CHANNELS 6 Xposition Yposition Zposition Xrotation Yrotation Zrotation
	JOINT LeftUpLeg_virtual
	{
		OFFSET 0.000000 0.000000 0.000000
		CHANNELS 3 Xrotation Yrotation Zrotation
		JOINT LeftUpLeg
		{
			OFFSET 11.394100 -6.187798 -0.413800
			CHANNELS 3 Xrotation Yrotation Zrotation
			JOINT LeftLeg
			{
				OFFSET 0.430247 -32.302673 3.732800
				CHANNELS 3 Xrotation Yrotation Zrotation
				JOINT LeftFoot
				{
					OFFSET -0.430247 -48.264931 -6.423300
					CHANNELS 3 Xrotation Yrotation Zrotation
					JOINT LeftToeBase
					{
						OFFSET 4.230900 -16.068199 23.438400
						CHANNELS 3 Xrotation Yrotation Zrotation
						JOINT LeftToe_End
						{
							OFFSET 4.510700 0.695400 19.974600
							CHANNELS 3 Xrotation Yrotation Zrotation
							End Site
							{
								OFFSET 0 0 0
							}
						}
					}
				}
			}
		}
	}
	JOINT RightUpLeg_virtual
	{
		OFFSET 0.000000 0.000000 0.000000
		CHANNELS 3 Xrotation Yrotation Zrotation
		JOINT RightUpLeg
		{
			OFFSET -11.333700 -6.187798 -0.413800
			CHANNELS 3 Xrotation Yrotation Zrotation
			JOINT RightLeg
			{
				OFFSET -0.430392 -32.302628 3.733000
				CHANNELS 3 Xrotation Yrotation Zrotation
				JOINT RightFoot
				{
					OFFSET 0.430392 -48.264973 -6.423500
					CHANNELS 3 Xrotation Yrotation Zrotation
					JOINT RightToeBase
					{
						OFFSET -4.230900 -16.068199 23.438400
						CHANNELS 3 Xrotation Yrotation Zrotation
						JOINT RightToe_End
						{
							OFFSET -4.510700 0.695400 19.974600
							CHANNELS 3 Xrotation Yrotation Zrotation
							End Site
							{
								OFFSET 0 0 0
							}
						}
					}
				}
			}
		}
	}
	JOINT Spine_virtual
	{
		OFFSET 0.000000 0.000000 0.000000
		CHANNELS 3 Xrotation Yrotation Zrotation
		JOINT Spine
		{
			OFFSET -0.002400 12.777504 0.315300
			CHANNELS 3 Xrotation Yrotation Zrotation
			JOINT Spine1
			{
				OFFSET -0.002067 5.816869 0.032633
				CHANNELS 3 Xrotation Yrotation Zrotation
				JOINT Spine1_split
				{
					OFFSET -0.002067 5.816869 0.032633
					CHANNELS 3 Xrotation Yrotation Zrotation
					JOINT Spine2
					{
						OFFSET -0.002067 5.816869 0.032633
						CHANNELS 3 Xrotation Yrotation Zrotation
						JOINT Neck_virtual
						{
							OFFSET 0.000000 0.000000 0.000000
							CHANNELS 3 Xrotation Yrotation Zrotation
							JOINT Neck
							{
								OFFSET -0.003700 21.199493 -0.826900
								CHANNELS 3 Xrotation Yrotation Zrotation
								JOINT Head
								{
									OFFSET 0.000000 20.442200 4.834800
									CHANNELS 3 Xrotation Yrotation Zrotation
									JOINT HeadTop_End
									{
										OFFSET 0.000000 34.668396 4.968400
										CHANNELS 3 Xrotation Yrotation Zrotation
										End Site
										{
											OFFSET 0 0 0
										}
									}
								}
							}
						}
						JOINT LeftShoulder_virtual
						{
							OFFSET 0.000000 0.000000 0.000000
							CHANNELS 3 Xrotation Yrotation Zrotation
							JOINT LeftShoulder
							{
								OFFSET 3.288150 8.794197 -1.372250
								CHANNELS 3 Xrotation Yrotation Zrotation
								JOINT LeftShoulder_split
								{
									OFFSET 3.288150 8.794197 -1.372250
									CHANNELS 3 Xrotation Yrotation Zrotation
									JOINT LeftArm
									{
										OFFSET 11.953299 -2.279007 -0.146200
										CHANNELS 3 Xrotation Yrotation Zrotation
										JOINT LeftForeArm
										{
											OFFSET 18.448900 0.000000 0.000000
											CHANNELS 3 Xrotation Yrotation Zrotation
											JOINT LeftHand
											{
												OFFSET 29.527798 0.000000 0.000000
												CHANNELS 3 Xrotation Yrotation Zrotation
												End Site
												{
													OFFSET 0 0 0
												}
											}
										}
									}
								}
							}
						}
						JOINT RightShoulder_virtual
						{
							OFFSET 0.000000 0.000000 0.000000
							CHANNELS 3 Xrotation Yrotation Zrotation
							JOINT RightShoulder
							{
								OFFSET -3.249400 8.794197 -1.372250
								CHANNELS 3 Xrotation Yrotation Zrotation
								JOINT RightShoulder_split
								{
									OFFSET -3.249400 8.794197 -1.372250
									CHANNELS 3 Xrotation Yrotation Zrotation
									JOINT RightArm
									{
										OFFSET -11.953299 -2.279007 -0.146200
										CHANNELS 3 Xrotation Yrotation Zrotation
										JOINT RightForeArm
										{
											OFFSET -18.448900 0.000000 0.000000
											CHANNELS 3 Xrotation Yrotation Zrotation
											JOINT RightHand
											{
												OFFSET -29.527802 0.000000 0.000000
												CHANNELS 3 Xrotation Yrotation Zrotation
												End Site
												{
													OFFSET 0 0 0
												}
											}
										}
									}
								}
							}
						}
					}
				}
			}
		}
	}
}
MOTION
Frames: 4
Frame Time: 0.03333333
-2.346411 91.741486 -0.067360 0.000000 0.000000 0.000000 51.557109 -70.896558 52.649560 -56.794590 2.418001 -2.734902 45.071534 -9.486393 1.583735 -4.881936 -0.506728 -0.413148 -0.379279 1.642668 -1.202613 0.000000 0.000000 0.000000 51.557109 -70.896558 52.649560 -49.455026 -2.659243 -18.665333 45.825908 -5.621498 -2.294699 -9.149074 -1.858879 14.531108 -1.799720 0.000037 0.000007 0.000000 0.000000 0.000000 51.557109 -70.896558 52.649560 7.792525 3.338258 4.380071 12.707912 6.406382 6.655391 0.000000 0.000000 0.000000 0.000000 0.000000 0.000000 12.728352 6.436531 6.586129 3.385417 -0.460113 2.258538 8.874431 1.648275 -4.487674 0.000000 0.000000 0.000000 12.728352 6.436531 6.586129 0.608283 -2.105578 -11.581399 0.000000 0.000000 0.000000 -46.459152 -29.078817 -92.550702 -0.000016 -20.859007 -0.000011 0.000000 0.000000 0.000000 12.728352 6.436531 6.586129 -0.784367 15.466941 22.252691 0.000000 0.000000 0.000000 -56.162873 25.008340 77.070946 0.000011 0.015604 0.000006 0.000000 0.000000 0.000000 
-2.354481 91.771446 0.049824 0.000000 0.000000 0.000000 51.410677 -70.858452 52.476760 -56.722699 2.381941 -2.813545 44.993987 -9.348852 1.565227 -4.845195 -0.516489 -0.350584 -0.366034 1.568038 -1.148000 0.000000 0.000000 0.000000 51.410677 -70.858452 52.476760 -49.313884 -2.684519 -18.765810 45.669240 -5.561416 -2.243622 -9.099549 -1.925813 14.584716 -1.783692 -0.000012 0.000007 0.000000 0.000000 0.000000 51.410677 -70.858452 52.476760 7.794882 3.322500 4.359031 12.734703 6.382450 6.620568 0.000000 0.000000 0.000000 0.000000 0.000000 0.000000 12.753690 6.413128 6.553444 3.323820 -0.449300 2.118596 8.568387 2.100355 -4.603548 0.000000 0.000000 0.000000 12.753690 6.413128 6.553444 0.607737 -2.121759 -11.501765 0.000000 0.000000 0.000000 -46.348766 -29.026190 -92.588699 -0.000004 -20.910909 0.000014 0.000000 0.000000 0.000000 12.753690 6.413128 6.553444 -0.771690 15.442486 22.219746 0.000000 0.000000 0.000000 -54.175541 25.033922 76.267757 -0.000007 3.450921 0.000010 0.000000 0.000000 0.000000 
-2.349995 91.795174 0.172752 0.000000 0.000000 0.000000 51.292494 -70.805450 52.339682 -56.682548 2.419026 -2.909747 44.939254 -9.346333 1.577964 -4.816102 -0.529671 -0.258855 -0.307519 1.694455 -1.263364 0.000000 0.000000 0.000000 51.292494 -70.805450 52.339682 -49.197805 -2.664600 -18.875771 45.526479 -5.524117 -2.175416 -9.041047 -1.994739 14.647069 -1.766012 -0.000021 0.000004 0.000000 0.000000 0.000000 51.292494 -70.805450 52.339682 7.796604 3.317138 4.332763 12.761461 6.360626 6.585522 0.000000 0.000000 0.000000 0.000000 0.000000 0.000000 12.782057 6.390455 6.516434 3.261843 -0.433260 1.978207 8.264423 2.555791 -4.677143 0.000000 0.000000 0.000000 12.782057 6.390455 6.516434 0.622097 -2.152977 -11.444257 0.000000 0.000000 0.000000 -46.248963 -29.013544 -92.576780 -0.000001 -20.995868 0.000005 0.000000 0.000000 0.000000 12.782057 6.390455 6.516434 -0.770512 15.402015 22.186667 0.000000 0.000000 0.000000 -52.826940 25.199985 75.725372 0.000012 5.532882 -0.000003 0.000000 0.000000 0.000000 
-2.333172 91.812286 0.305717 0.000000 0.000000 0.000000 51.170497 -70.738726 52.199960 -56.673191 2.383797 -3.019204 44.886665 -9.228800 1.549797 -4.783498 -0.541534 -0.181938 -0.285292 1.699338 -1.273449 0.000000 0.000000 0.000000 51.170497 -70.738726 52.199960 -49.110119 -2.655525 -18.996991 45.391323 -5.480794 -2.124900 -8.974808 -2.062204 14.721042 -1.754206 -0.000023 0.000001 0.000000 0.000000 0.000000 51.170497 -70.738726 52.199960 7.795455 3.306989 4.308048 12.781133 6.342131 6.541845 0.000000 0.000000 0.000000 0.000000 0.000000 0.000000 12.800691 6.371300 6.475303 3.199640 -0.415970 1.840749 7.937527 3.014451 -4.718351 0.000000 0.000000 0.000000 12.800691 6.371300 6.475303 0.617849 -2.182634 -11.388325 0.000000 0.000000 0.000000 -46.114931 -29.034287 -92.541755 -0.000004 -21.111729 0.000002 0.000000 0.000000 0.000000 12.800691 6.371300 6.475303 -0.768002 15.352013 22.171648 0.000000 0.000000 0.000000 -51.911548 25.479596 75.377114 -0.000005 6.967202 0.000011 0.000000 0.000000 0.000000 
